<svg xmlns="http://www.w3.org/2000/svg" xmlns:xlink="http://www.w3.org/1999/xlink" width="384pt" height="384pt" viewBox="0 0 384 384" version="1.1" class="iconadda"><!-- iconadda -->
<g >
<path style=" stroke:none;fill-rule:nonzero;fill:rgb(0%,0%,0%);fill-opacity:1;" d="M 378.886719 16.75 C 375.613281 13.476562 371.175781 11.636719 366.542969 11.636719 L 17.453125 11.65625 C 7.8125 11.660156 0 19.472656 0 29.113281 L 0 285.09375 C 0 294.734375 7.816406 302.546875 17.453125 302.546875 L 128 302.546875 L 128 337.457031 L 110.546875 337.457031 C 100.90625 337.457031 93.09375 345.273438 93.09375 354.910156 C 93.09375 364.550781 100.910156 372.363281 110.546875 372.363281 L 273.457031 372.363281 C 283.097656 372.363281 290.910156 364.546875 290.910156 354.910156 C 290.910156 345.269531 283.09375 337.457031 273.457031 337.457031 L 256.003906 337.457031 L 256.003906 302.546875 L 366.550781 302.546875 C 376.191406 302.546875 384.003906 294.730469 384.003906 285.09375 L 384 29.089844 C 384 24.460938 382.160156 20.023438 378.886719 16.75 Z M 140.34375 134.523438 L 117.777344 157.089844 L 140.34375 179.65625 C 147.160156 186.472656 147.160156 197.523438 140.34375 204.339844 L 140.34375 204.34375 C 137.074219 207.621094 132.632812 209.460938 128 209.453125 C 123.371094 209.460938 118.929688 207.621094 115.660156 204.339844 L 80.75 169.429688 C 73.933594 162.613281 73.933594 151.5625 80.75 144.746094 L 115.660156 109.835938 C 122.476562 103.019531 133.527344 103.019531 140.34375 109.835938 C 147.160156 116.652344 147.160156 127.703125 140.34375 134.519531 Z M 215.035156 125.050781 L 203.398438 194.867188 C 201.976562 203.40625 194.582031 209.453125 186.203125 209.453125 C 185.25 209.453125 184.285156 209.375 183.3125 209.214844 C 173.804688 207.628906 167.378906 198.636719 168.964844 189.128906 L 180.601562 119.3125 C 182.1875 109.804688 191.179688 103.371094 200.6875 104.964844 C 210.195312 106.550781 216.617188 115.542969 215.035156 125.050781 Z M 303.25 169.433594 L 268.339844 204.34375 L 268.339844 204.339844 C 265.070312 207.621094 260.628906 209.460938 256 209.453125 C 251.371094 209.460938 246.929688 207.621094 243.660156 204.339844 C 236.84375 197.523438 236.84375 186.472656 243.660156 179.65625 L 266.226562 157.089844 L 243.660156 134.523438 C 236.84375 127.707031 236.84375 116.65625 243.660156 109.839844 C 250.476562 103.023438 261.527344 103.023438 268.34375 109.839844 L 303.253906 144.75 C 310.070312 151.566406 310.070312 162.621094 303.253906 169.433594 Z M 303.25 169.433594 "/>
</g>
</svg>
